<?xml version="1.0" encoding="UTF-8"?>
<svg version="1.1" xmlns="http://www.w3.org/2000/svg" width="1024" height="1024">
<path d="M0 0 C337.92 0 675.84 0 1024 0 C1024 337.92 1024 675.84 1024 1024 C686.08 1024 348.16 1024 0 1024 C0 686.08 0 348.16 0 0 Z " fill="#FEFEFE" transform="translate(0,0)"/>
<path d="M0 0 C1.26081967 -0.00525911 1.26081967 -0.00525911 2.54711044 -0.01062447 C5.3524286 -0.01989876 8.15753735 -0.01502544 10.96286392 -0.01015663 C12.99901951 -0.01389489 15.03517366 -0.01849711 17.07132554 -0.02388728 C22.65828737 -0.03611091 28.24518928 -0.03585755 33.83216143 -0.03349853 C39.86094744 -0.0330902 45.88971429 -0.04413097 51.91849136 -0.05361366 C63.72675839 -0.07022094 75.53501047 -0.07574901 87.34328672 -0.07683842 C96.94202977 -0.07775819 106.54076635 -0.08187841 116.13950729 -0.08823967 C118.90442601 -0.09003481 121.66934474 -0.09181444 124.43426347 -0.09358943 C125.46536988 -0.09425257 125.46536988 -0.09425257 126.51730672 -0.09492911 C145.84764763 -0.10723417 165.1779863 -0.11513058 184.5083313 -0.11424255 C185.60109778 -0.11419582 185.60109778 -0.11419582 186.71594034 -0.11414814 C190.40817474 -0.11398193 194.10040913 -0.11378385 197.79264352 -0.11357872 C198.52590909 -0.11353883 199.25917466 -0.11349894 200.0146604 -0.11345784 C201.49750147 -0.11337697 202.98034253 -0.11329337 204.4631836 -0.11320706 C227.53148197 -0.11198167 250.59972154 -0.12699384 273.66800308 -0.15435219 C299.59684323 -0.18509056 325.52564474 -0.20228364 351.45450425 -0.20042574 C354.2206804 -0.20027649 356.98685654 -0.20017907 359.75303268 -0.20011711 C360.43411402 -0.2000938 361.11519535 -0.20007049 361.81691552 -0.20004648 C372.76452037 -0.199985 383.71207406 -0.21274203 394.65966371 -0.22998164 C405.6670882 -0.24695667 416.67444735 -0.24855493 427.68187925 -0.235763 C433.64195404 -0.22923282 439.60184389 -0.22911826 445.56190109 -0.2464695 C451.02231667 -0.26220249 456.48240068 -0.25933392 461.94280818 -0.24190123 C463.91382216 -0.2388319 465.88486089 -0.24246117 467.85584566 -0.25362138 C482.77539039 -0.33247705 494.95821281 0.84572736 507.21390152 10.25726891 C508.08015152 10.83476891 508.94640152 11.41226891 509.83890152 12.00726891 C517.28354661 19.06009057 523.69003757 29.77882979 524.33694935 40.2487278 C524.33602756 40.95297764 524.33510576 41.65722748 524.33415604 42.38281822 C524.3355307 43.19607567 524.33690536 44.00933311 524.33832169 44.84723473 C524.33472641 45.73052452 524.33113113 46.61381432 524.32742691 47.52387047 C524.32757294 48.46079735 524.32771896 49.39772423 524.32786942 50.36304283 C524.32717309 53.45801679 524.31939375 56.55293047 524.31155777 59.64789391 C524.3096926 61.79452036 524.30826916 63.94114724 524.30727005 66.08777428 C524.3034527 71.73648823 524.29362906 77.38517645 524.28256607 83.03388023 C524.27233516 88.79844375 524.26776882 94.56301143 524.26272964 100.32758141 C524.25200612 111.63748854 524.23493905 122.94737658 524.21390152 134.25726891 C523.52682082 134.25873547 522.83974012 134.26020203 522.1318388 134.26171303 C505.35258917 134.2988923 488.57357203 134.35805305 471.79448986 134.44117165 C463.67997757 134.48084779 455.56556066 134.51329793 447.45096207 134.528265 C440.37176843 134.54134115 433.29278566 134.56845617 426.21371084 134.61188197 C422.47124477 134.63436397 418.72903746 134.65018766 414.98649788 134.64915276 C411.45113071 134.64839818 407.91633264 134.66666201 404.38111305 134.69843674 C402.49109597 134.71078296 400.60098259 134.70393431 398.71094131 134.69612694 C386.9427118 134.83667363 375.69706995 137.63966501 364.96390152 142.50726891 C364.30116226 142.80391441 363.638423 143.10055992 362.95560074 143.40619469 C356.78458794 146.2756334 351.45295082 149.91308828 346.21390152 154.25726891 C344.93772964 155.28980797 344.93772964 155.28980797 343.63577652 156.34320641 C327.42279513 170.11926728 316.95863529 190.18073529 314.21390152 211.25726891 C312.46316025 237.13447736 318.49494671 260.08044924 335.21390152 280.25726891 C336.83657067 281.97816258 338.51479157 283.61125614 340.21390152 285.25726891 C340.21390152 285.91726891 340.21390152 286.57726891 340.21390152 287.25726891 C340.76433121 287.50090172 341.31476089 287.74453453 341.88187027 287.99555016 C344.71029265 289.52583563 347.01933619 291.43010091 349.52640152 293.44476891 C363.05141541 303.85526271 380.83344199 310.30139918 397.94665909 310.41548729 C399.06557541 310.42527611 400.18449173 310.43506493 401.33731461 310.44515038 C403.15640335 310.45378357 403.15640335 310.45378357 405.01224136 310.46259117 C406.94476257 310.47744057 406.94476257 310.47744057 408.91632462 310.49258995 C412.43649864 310.51953107 415.95668592 310.54059876 419.47690535 310.56059194 C423.16047145 310.5825184 426.84399719 310.60987438 430.52753067 310.63664818 C437.49717109 310.68648527 444.46683402 310.73145728 451.43651831 310.77467054 C459.3736552 310.82411988 467.31075157 310.87900938 475.24784923 310.93435013 C491.56982927 311.0480322 507.89184651 311.15490102 524.21390152 311.25726891 C524.28360837 323.19294733 524.33681757 335.12857681 524.36933804 347.06441784 C524.38495125 352.60753478 524.40610983 358.15051178 524.44021988 363.6935482 C524.47296865 369.04927687 524.49078717 374.40487147 524.49853325 379.7606926 C524.50404899 381.797489 524.51481949 383.83427859 524.53109169 385.87101746 C524.66332193 403.11775908 523.41406685 418.03675191 510.83890152 431.13226891 C497.24540971 443.79995811 482.57060255 444.85219722 464.81860733 444.76520348 C462.76107217 444.76981803 460.70354031 444.77617466 458.64601529 444.78411245 C453.01854925 444.80075227 447.39135587 444.79258369 441.76388907 444.78016758 C435.68475898 444.77109764 429.60567497 444.78509639 423.52655411 444.79608727 C412.31546621 444.81282983 401.10446521 444.81140208 389.89337915 444.80044139 C379.53630407 444.79036573 369.17926068 444.78775863 358.8221817 444.79253197 C357.79031564 444.79299028 357.79031564 444.79299028 356.7376038 444.79345785 C353.94493476 444.79470326 351.15226574 444.79597687 348.35959674 444.7972969 C322.18255368 444.80952264 296.00556567 444.79845486 269.82853111 444.77690931 C246.58505089 444.75792377 223.34165833 444.75963013 200.09817886 444.77875328 C173.964963 444.80018221 147.83179571 444.80865971 121.69857228 444.79630423 C118.91171147 444.79502141 116.12485064 444.79377005 113.33798981 444.79253197 C112.65182703 444.79221566 111.96566424 444.79189935 111.25870865 444.79157345 C100.90817685 444.78702827 90.55768024 444.79233578 80.20715332 444.80245018 C68.43680187 444.81389489 56.66653411 444.81062691 44.89618908 444.7893272 C38.8917862 444.77881941 32.88756118 444.77469065 26.88315964 444.78792381 C21.384755 444.79985852 15.8866928 444.79326696 10.38831915 444.7720136 C8.4013146 444.76755223 6.41428101 444.76980332 4.42729519 444.77951676 C-14.59851941 444.86537744 -14.59851941 444.86537744 -23.78609848 440.25726891 C-24.78125473 439.77644859 -25.77641098 439.29562828 -26.80172348 438.80023766 C-38.99498591 431.40327601 -46.46967005 421.40081903 -50.14875257 407.50832295 C-51.33649183 401.4497534 -51.19449641 395.36457139 -51.16032028 389.21414757 C-51.16306539 387.7137628 -51.16712132 386.21337997 -51.17236394 384.71300185 C-51.18289344 380.61638238 -51.1748593 376.51998293 -51.16361344 372.42337322 C-51.15473698 367.99525919 -51.16322481 363.56717288 -51.16947556 359.13905907 C-51.17894509 350.47533675 -51.17238013 341.81169796 -51.16021261 333.14798187 C-51.14656631 323.05399798 -51.14823276 312.96003381 -51.15034594 302.86604305 C-51.15353306 284.85450747 -51.14188346 266.84301149 -51.12228012 248.83148766 C-51.10327151 231.36174883 -51.09619441 213.8920564 -51.10177231 196.42230797 C-51.1078322 177.38674942 -51.1076496 158.35121125 -51.09628648 139.3156544 C-51.09507921 137.28540588 -51.09387323 135.25515735 -51.09266853 133.22490883 C-51.09206499 132.22604808 -51.09146146 131.22718732 -51.09083963 130.19805806 C-51.08696322 123.1649502 -51.08735301 116.13184994 -51.08925438 109.09874153 C-51.09137801 100.52731099 -51.08613937 91.95592103 -51.07164083 83.38450192 C-51.06440521 79.01276724 -51.06031274 74.64109162 -51.06488419 70.26935196 C-51.06896962 66.26495799 -51.06376952 62.26068582 -51.05125811 58.2563103 C-51.04833772 56.81032718 -51.04875208 55.36433252 -51.05290119 53.91835241 C-51.09376543 38.25053873 -48.18426242 25.74578819 -37.22359848 13.88226891 C-26.8817716 4.20257118 -14.001558 -0.07521728 0 0 Z " fill="#161616" transform="translate(260.7860984802246,337.74273109436035)"/>
<path d="M0 0 C1.47970592 -0.00571634 2.95940745 -0.01268544 4.43910217 -0.02079773 C8.42013717 -0.03859319 12.40095018 -0.03758816 16.38201284 -0.03185534 C19.7148905 -0.02874731 23.04772649 -0.03487293 26.38059819 -0.04089409 C34.24090995 -0.05488939 42.10111286 -0.05341645 49.96142578 -0.04199219 C58.05962006 -0.0304821 66.15748428 -0.04464626 74.25563514 -0.07138866 C81.22748669 -0.09354604 88.1992346 -0.10018396 95.17111886 -0.09431225 C99.32729338 -0.09094563 103.48325574 -0.0933396 107.63940048 -0.11056328 C111.54171658 -0.12603391 115.44354183 -0.1220761 119.34583855 -0.10325813 C120.77527841 -0.09957428 122.20475472 -0.10267487 123.634161 -0.11314392 C137.0069499 -0.20359878 137.0069499 -0.20359878 141.87158203 4.40405273 C145.53776582 8.46658071 146.98931071 11.40184307 147.01875305 16.8490448 C147.02948601 18.21360306 147.02948601 18.21360306 147.04043579 19.60572815 C147.04312469 20.60160446 147.0458136 21.59748077 147.04858398 22.62353516 C147.05515518 23.67426208 147.06172638 24.72498901 147.0684967 25.80755615 C147.08823809 29.2915453 147.09989478 32.77549131 147.10986328 36.25952148 C147.11393881 37.44933435 147.11801434 38.63914722 147.12221336 39.86501503 C147.14307857 46.16358899 147.15737786 52.46214113 147.16674805 58.76074219 C147.17780797 65.26296019 147.21220225 71.76483555 147.25191975 78.26693249 C147.27808091 83.26929862 147.28643952 88.27158309 147.29002953 93.27401161 C147.29489743 95.67054875 147.30651714 98.06708219 147.32506752 100.46355247 C147.34944529 103.82184256 147.34849583 107.17924596 147.34155273 110.53759766 C147.36076782 112.01623039 147.36076782 112.01623039 147.38037109 113.5247345 C147.32792553 120.50208568 146.31588785 125.85578836 141.33797359 130.98394966 C135.1122899 135.74027742 127.80904193 135.10205895 120.32421875 135.03515625 C118.85807939 135.04030152 117.39194623 135.04758738 115.92582703 135.05683899 C111.96037645 135.07529407 107.99560164 135.06244827 104.0301795 135.04274869 C99.86338435 135.02629319 95.69662971 135.03518551 91.52981567 135.04026794 C84.52741796 135.04478424 77.52528774 135.02895543 70.52294922 135.00097656 C62.45905423 134.96900181 54.39564353 134.9689127 46.33171451 134.98619133 C38.54369482 135.00213602 30.75585046 134.99526727 22.96783829 134.97825432 C19.66913229 134.97143078 16.37056884 134.9723677 13.07186508 134.97979927 C9.17281935 134.987542 5.27431444 134.97508016 1.37536049 134.94795036 C-0.04425007 134.94114526 -1.46391194 134.94088229 -2.88352013 134.94816589 C-23.23388762 135.04043109 -39.67304986 127.96529592 -54.46826172 114.23217773 C-59.16079105 109.45141281 -62.4912031 104.39847145 -65.50341797 98.46655273 C-65.98609131 97.5190918 -65.98609131 97.5190918 -66.47851562 96.55249023 C-70.88969985 87.35222023 -72.67543035 78.258096 -72.56591797 68.09155273 C-72.55761963 67.08753418 -72.54932129 66.08351563 -72.54077148 65.04907227 C-72.13476124 47.10659815 -64.67175582 31.26048482 -52.12841797 18.40405273 C-36.87088591 4.85844574 -20.05278818 -0.07079875 0 0 Z " fill="#171717" transform="translate(668.12841796875,492.595947265625)"/>
<path d="M0 0 C7.00959684 7.3356246 8.28211912 16.84891476 10.25 26.4375 C10.54260929 27.82443233 10.83622337 29.21115306 11.13085938 30.59765625 C11.71034465 33.33093745 12.28209725 36.06566384 12.84814453 38.80175781 C13.40364741 41.47730409 13.9779334 44.14769966 14.56982422 46.81542969 C14.84455566 48.05969727 15.11928711 49.30396484 15.40234375 50.5859375 C15.64976318 51.69114746 15.89718262 52.79635742 16.15209961 53.93505859 C16.6875 56.8125 16.6875 56.8125 16.6875 60.8125 C-83.9625 60.8125 -184.6125 60.8125 -288.3125 60.8125 C-285.14900903 59.23075451 -283.02895617 58.39016337 -279.68676758 57.6496582 C-278.74097336 57.43633347 -277.79517914 57.22300873 -276.82072449 57.0032196 C-275.77258072 56.77141495 -274.72443695 56.53961029 -273.64453125 56.30078125 C-271.275238 55.76522802 -268.9062828 55.22817787 -266.53759766 54.68994141 C-265.89444831 54.54415618 -265.25129896 54.39837095 -264.58866024 54.24816799 C-255.94427088 52.28349119 -247.32274778 50.22187639 -238.69921875 48.16796875 C-236.92782807 47.74642042 -235.15643523 47.32488121 -233.38504028 46.90335083 C-229.75485172 46.03923262 -226.12481297 45.17448825 -222.49487305 44.30932617 C-218.85151215 43.44099681 -215.20796126 42.57347265 -211.56420898 41.70678711 C-161.46169412 29.8252214 -161.46169412 29.8252214 -111.5625 17.125 C-96.19399621 13.07265152 -80.79668083 9.20543952 -65.33270264 5.53390503 C-61.46021576 4.60892355 -57.59284411 3.66377406 -53.72598267 2.71559143 C-50.12598194 1.8335262 -46.52392138 0.96006244 -42.92163086 0.08740234 C-41.10933798 -0.35345699 -39.29783539 -0.79757537 -37.48706055 -1.24462891 C-34.79416015 -1.90863174 -32.09864008 -2.56088164 -29.40234375 -3.2109375 C-28.60336166 -3.41085297 -27.80437958 -3.61076843 -26.98118591 -3.81674194 C-17.11098939 -6.16666099 -8.62271391 -5.69424503 0 0 Z " fill="#171717" transform="translate(694.3125,256.1875)"/>
<path d="M0 0 C11.6546551 6.59697458 15.01065643 16.763154 19.7265625 28.72192383 C21.12576271 32.22439854 22.61416089 35.51467945 24.52734375 38.76953125 C26.3125 41.875 26.3125 41.875 26.3125 43.875 C7.63718867 49.11441589 -11.08186873 54.07678805 -29.9140625 58.7265625 C-32.44418369 59.35394972 -34.97424182 59.98159131 -37.50424194 60.60946655 C-42.77918652 61.91793828 -48.054873 63.2233817 -53.33105469 64.52685547 C-58.59910255 65.82835087 -63.86637543 67.13291971 -69.1328125 68.44091797 C-98.01730806 75.61442643 -126.92169631 82.69584608 -155.87890625 89.5703125 C-157.10236881 89.86109303 -158.32583138 90.15187355 -159.58636856 90.45146561 C-173.01891578 93.64062386 -186.46113097 96.76429487 -199.95532036 99.68250656 C-220.13106138 104.04878128 -240.12540886 109.18655242 -259.98803711 114.80932617 C-264.72647255 116.1481095 -269.18434758 117.26724189 -274.125 117.5625 C-275.20007813 117.62695312 -276.27515625 117.69140625 -277.3828125 117.7578125 C-282.48653854 117.93879569 -287.58162171 117.95779803 -292.6875 117.875 C-289.17449122 114.9713907 -285.28345019 113.05678111 -281.1875 111.125 C-280.3732959 110.74069824 -279.5590918 110.35639648 -278.72021484 109.96044922 C-266.45629283 104.27299228 -253.90096171 99.24095029 -241.409729 94.07971191 C-232.27485572 90.29984058 -223.1709132 86.44724559 -214.06692505 82.59371948 C-199.6843073 76.50626238 -185.29406218 70.43816519 -170.875 64.4375 C-169.80520905 63.99216919 -169.80520905 63.99216919 -168.71380615 63.5378418 C-161.59066621 60.57310887 -154.46577161 57.61261064 -147.33935547 54.65576172 C-123.72209044 44.85585597 -100.14317764 34.97317322 -76.625 24.9375 C-75.48113831 24.4493985 -74.33727661 23.961297 -73.15875244 23.45840454 C-72.02886902 22.97624481 -70.8989856 22.49408508 -69.73486328 21.99731445 C-45.89037543 11.82211529 -45.89037543 11.82211529 -34.15090942 6.88790894 C-32.86532166 6.34745333 -31.58005097 5.8062427 -30.2951355 5.26419067 C-28.58314774 4.54230226 -26.86973931 3.82378577 -25.15625 3.10546875 C-24.23263672 2.71770264 -23.30902344 2.32993652 -22.35742188 1.93041992 C-14.59260534 -1.13901149 -8.12986502 -2.4802978 0 0 Z " fill="#161616" transform="translate(598.6875,199.125)"/>
<path d="M0 0 C7.87414823 5.62009817 13.32821385 12.23849052 15.796875 21.7109375 C17.03234232 30.42224277 15.22766284 38.72610467 10.21875 46.00390625 C3.80619551 53.70186017 -2.61952002 57.95603682 -12.74609375 59.1171875 C-22.98490857 59.38056537 -30.39937315 57.53688334 -38.359375 50.91796875 C-44.79892606 44.30105718 -47.37111438 36.25195446 -47.703125 27.1484375 C-47.37565678 18.23285118 -44.51419127 11.07125349 -38.40234375 4.53515625 C-27.23349791 -4.72923275 -12.81035048 -7.49541784 0 0 Z " fill="#FDFDFD" transform="translate(678.203125,532.2890625)"/>
<path d="M0 0 C2 2 2 2 3 10 C-97.65 10 -198.3 10 -302 10 C-295.016793 6.5083965 -287.75330787 5.5770923 -280 6 C-279.67 6.33 -279.34 6.66 -279 7 C-277.50410891 7.10178293 -276.0034309 7.13397766 -274.5040884 7.1386652 C-273.52674659 7.14413964 -272.54940478 7.14961409 -271.54244655 7.15525442 C-269.91261753 7.15672158 -269.91261753 7.15672158 -268.24986267 7.15821838 C-266.53348904 7.16562535 -266.53348904 7.16562535 -264.7824412 7.17318195 C-261.59225795 7.1859387 -258.40209844 7.19419611 -255.21189725 7.20060861 C-251.77696875 7.20859022 -248.34206268 7.22229564 -244.90715027 7.23532104 C-238.95124448 7.2571157 -232.99533646 7.2752492 -227.03941154 7.29092598 C-218.42804711 7.31359747 -209.81670749 7.34174401 -201.20536406 7.37124526 C-187.23547174 7.41895462 -173.2655693 7.4622097 -159.2956543 7.50268555 C-145.72175305 7.54202349 -132.14786081 7.5834456 -118.57397461 7.62768555 C-117.31983055 7.63177196 -117.31983055 7.63177196 -116.04035025 7.63594092 C-111.84608082 7.64962011 -107.65181153 7.66334044 -103.4575423 7.67708123 C-68.63838019 7.79109852 -33.81919901 7.89789622 1 8 C0.67 5.36 0.34 2.72 0 0 Z " fill="#151515" transform="translate(708,307)"/>
<path d="M0 0 C0.66 0 1.32 0 2 0 C2 29.7 2 59.4 2 90 C-30.26929606 90.1209091 -30.26929606 90.1209091 -43.7578125 90.14648438 C-53.08338348 90.16430799 -62.40887335 90.18529791 -71.734375 90.22631836 C-78.52510786 90.25617484 -85.31577512 90.27556405 -92.10657179 90.28226548 C-95.70388572 90.28618416 -99.30101194 90.29542441 -102.89826584 90.31719017 C-106.90931352 90.34126388 -110.92003272 90.34197243 -114.93115234 90.34057617 C-116.13020706 90.351362 -117.32926178 90.36214783 -118.56465149 90.3732605 C-120.19691429 90.36707451 -120.19691429 90.36707451 -121.8621521 90.36076355 C-122.81159887 90.36352893 -123.76104565 90.36629431 -124.73926353 90.36914349 C-125.48530657 90.24732614 -126.2313496 90.12550879 -127 90 C-127.66 89.01 -128.32 88.02 -129 87 C-86.76 87 -44.52 87 -1 87 C-0.505 43.935 -0.505 43.935 0 0 Z " fill="#212121" transform="translate(783,382)"/>
<path d="M0 0 C1.99954746 -0.04254356 4.00041636 -0.04080783 6 0 C6.33 0.33 6.66 0.66 7 1 C8.46981872 1.10170762 9.94449874 1.13397521 11.41782475 1.1386652 C12.37774958 1.14413964 13.33767441 1.14961409 14.32668787 1.15525442 C15.39378581 1.15623253 16.46088375 1.15721064 17.56031799 1.15821838 C18.68414932 1.16315636 19.80798064 1.16809434 20.96586746 1.17318195 C24.76313206 1.18864223 28.56037966 1.19694053 32.35766602 1.20532227 C35.06714253 1.21434056 37.77661271 1.22485979 40.48608398 1.23532104 C46.33558502 1.25711548 52.18508833 1.27524906 58.03460884 1.29092598 C66.49212811 1.31359767 74.94962211 1.34174418 83.40711998 1.37124526 C97.1274406 1.41895437 110.84777152 1.46220953 124.56811523 1.50268555 C137.89950361 1.54202361 151.23088281 1.58344576 164.56225586 1.62768555 C165.79399745 1.63177196 165.79399745 1.63177196 167.05062271 1.63594092 C171.16997178 1.64962012 175.28932072 1.66334044 179.40866959 1.67708123 C213.60576078 1.79109813 247.80287122 1.89789592 282 2 C282 2.33 282 2.66 282 3 C188.94 3 95.88 3 0 3 C0 2.01 0 1.02 0 0 Z " fill="#010202" transform="translate(422,313)"/>
<path d="M0 0 C7.06850286 0.34779898 13.99477862 -0.06597048 21 -1 C15.85411644 4.14588356 5.29900632 2.94141609 -1.51953125 3.0625 C-4.34712829 3.0625 -7.17280456 3.04584641 -10 3 C-4.56460915 -1.16713299 -4.56460915 -1.16713299 0 0 Z " fill="#030403" transform="translate(316,314)"/>
<path d="M0 0 C1.9078584 3.1749094 2.1609041 5.10585211 1.625 8.75 C1.51414062 9.54921875 1.40328125 10.3484375 1.2890625 11.171875 C1.19367187 11.77515625 1.09828125 12.3784375 1 13 C0.67 13 0.34 13 0 13 C-0.19466332 11.20909747 -0.38051213 9.41723495 -0.5625 7.625 C-0.66691406 6.62726562 -0.77132812 5.62953125 -0.87890625 4.6015625 C-1 2 -1 2 0 0 Z " fill="#222020" transform="translate(597,564)"/>
<path d="M0 0 C0.33 0.99 0.66 1.98 1 3 C2.65 3 4.3 3 6 3 C6 3.33 6 3.66 6 4 C2.04 4 -1.92 4 -6 4 C-2 1 -2 1 0 0 Z " fill="#1D1D1D" transform="translate(312,313)"/>
<path d="M0 0 C0 0.66 0 1.32 0 2 C-7.625 4.125 -7.625 4.125 -11 3 C-7.14243493 0.84694043 -4.44870215 -0.39253254 0 0 Z " fill="#202021" transform="translate(327,308)"/>
</svg>
